<svg width="158" height="30" xmlns="http://www.w3.org/2000/svg"><g fill="none" fill-rule="evenodd"><g transform="translate(108)"><rect fill="#FFF" width="50" height="30" rx="2"/><path d="M28.064 15.243c0 5.389-4.368 9.757-9.757 9.757-5.39 0-9.758-4.368-9.758-9.757 0-5.39 4.369-9.758 9.758-9.758 5.389 0 9.757 4.369 9.757 9.758" fill="#C00"/><path d="M31.407 5.485a9.723 9.723 0 00-7.536 3.559h1.972c.27.328.517.672.744 1.033h-3.46a9.803 9.803 0 00-.562 1.034h4.584c.156.334.294.679.413 1.033h-5.41a9.714 9.714 0 00-.283 1.032h5.976a9.829 9.829 0 01-.283 5.166h-5.41c.119.354.257.7.413 1.034h4.584a9.775 9.775 0 01-.563 1.033h-3.459c.226.36.475.705.744 1.033h1.971a9.751 9.751 0 01-.985 1.033A9.722 9.722 0 0031.407 25c5.389 0 9.757-4.368 9.757-9.757 0-5.389-4.368-9.758-9.757-9.758" fill="#F90"/><path d="M16.028 16.311a1.822 1.822 0 00-.236-.017c-.6 0-.904.206-.904.613 0 .25.148.41.38.41.43 0 .742-.41.76-1.006zm.77 1.793h-.877l.02-.417c-.268.33-.625.487-1.11.487-.574 0-.968-.448-.968-1.1 0-.98.685-1.551 1.86-1.551.12 0 .274.011.432.03a.994.994 0 00.041-.26c0-.267-.184-.367-.68-.367a3.532 3.532 0 00-1.12.182l.147-.905c.527-.156.875-.213 1.267-.213.91 0 1.392.408 1.39 1.18.003.207-.032.461-.085.797-.092.583-.29 1.833-.316 2.137zM13.42 18.104h-1.06l.608-3.804-1.356 3.804h-.721l-.09-3.783-.637 3.783h-.992L10 13.155h1.524l.092 2.77.929-2.77h1.694l-.819 4.95M32.716 16.311a1.814 1.814 0 00-.236-.017c-.6 0-.904.206-.904.613 0 .25.147.41.38.41.43 0 .742-.41.76-1.006zm.77 1.793h-.877l.02-.417c-.268.33-.625.487-1.11.487-.574 0-.968-.448-.968-1.1 0-.98.685-1.551 1.86-1.551.12 0 .274.011.432.03a.988.988 0 00.041-.26c0-.267-.184-.367-.68-.367a3.54 3.54 0 00-1.121.182c.012-.067.148-.905.148-.905.527-.156.876-.213 1.267-.213.91 0 1.392.408 1.39 1.18.002.207-.032.461-.085.797-.092.583-.29 1.833-.316 2.137zM21.507 18.043c-.29.092-.516.131-.761.131-.542 0-.837-.311-.837-.884-.008-.178.077-.646.145-1.073.061-.376.46-2.747.46-2.747h1.052l-.123.61h.636l-.144.967h-.638c-.122.765-.296 1.719-.298 1.845 0 .208.11.298.362.298.121 0 .215-.012.286-.038l-.14.891M24.735 18.01c-.362.111-.71.165-1.08.164-1.18-.002-1.794-.617-1.794-1.796 0-1.375.782-2.388 1.843-2.388.868 0 1.423.567 1.423 1.456 0 .295-.038.583-.13.99H22.9c-.07.584.303.827.916.827.376 0 .716-.078 1.094-.253l-.175 1zm-.592-2.385c.006-.084.112-.719-.49-.719-.335 0-.575.256-.673.719h1.163zM17.434 15.352c0 .509.247.86.807 1.124.429.202.495.261.495.444 0 .25-.19.364-.608.364-.316 0-.61-.05-.95-.159l-.145.93c.24.052.456.1 1.103.119 1.117 0 1.633-.426 1.633-1.345 0-.553-.215-.878-.746-1.122-.444-.204-.495-.25-.495-.437 0-.218.176-.33.518-.33.208 0 .492.023.761.061l.15-.933a7.152 7.152 0 00-.931-.078c-1.185 0-1.596.618-1.592 1.362M29.887 14.096c.294 0 .569.076.947.267l.173-1.074c-.156-.061-.702-.42-1.164-.42-.709 0-1.309.353-1.73.933-.615-.204-.868.208-1.178.618l-.275.064c.021-.135.04-.269.034-.405h-.973c-.133 1.247-.368 2.508-.553 3.755l-.048.27h1.06a68.74 68.74 0 00.332-2.383l.4-.221c.06-.222.245-.297.62-.288a4.509 4.509 0 00-.076.825c0 1.317.712 2.137 1.852 2.137.294 0 .546-.039.936-.145l.186-1.128c-.351.173-.639.254-.9.254-.615 0-.988-.455-.988-1.206 0-1.09.554-1.853 1.345-1.853M38.856 13.155l-.236 1.43c-.29-.381-.6-.657-1.011-.657-.534 0-1.021.405-1.34 1.002-.443-.092-.902-.249-.902-.249v.004a5.96 5.96 0 00.047-.606h-.973c-.133 1.247-.368 2.508-.552 3.755l-.05.27H34.9c.143-.928.252-1.7.333-2.312.362-.328.544-.613.91-.594a3.45 3.45 0 00-.258 1.306c0 1.006.509 1.67 1.28 1.67.388 0 .686-.134.976-.444l-.05.374h1.002l.807-4.949h-1.044zm-1.325 4.02c-.36 0-.543-.268-.543-.794 0-.791.34-1.352.821-1.352.364 0 .562.277.562.788 0 .798-.347 1.358-.84 1.358z" fill="#006"/><path fill="#FFF" d="M13.725 17.81h-1.06l.608-3.804-1.355 3.805h-.723l-.089-3.783-.638 3.783h-.991l.828-4.95h1.523l.043 3.064 1.028-3.063h1.645l-.82 4.949M16.333 16.018a1.761 1.761 0 00-.236-.017c-.6 0-.904.206-.904.613 0 .25.148.41.38.41.43 0 .742-.41.76-1.006zm.77 1.793h-.877l.02-.417c-.268.33-.625.487-1.11.487-.574 0-.968-.45-.968-1.1 0-.98.685-1.551 1.86-1.551.12 0 .274.01.432.03A.999.999 0 0016.5 15c0-.267-.184-.366-.68-.366a3.519 3.519 0 00-1.12.18l.146-.905c.528-.155.876-.213 1.268-.213.91 0 1.392.409 1.39 1.18.002.207-.032.463-.085.798-.092.582-.29 1.833-.316 2.137zM31.312 12.995l-.174 1.074c-.378-.19-.652-.267-.946-.267-.79 0-1.346.764-1.346 1.855 0 .75.373 1.204.99 1.204.26 0 .548-.08.899-.253l-.186 1.127c-.39.107-.643.146-.936.146-1.141 0-1.851-.82-1.851-2.137 0-1.77.982-3.006 2.386-3.006.462 0 1.008.196 1.164.257M33.02 16.018a1.748 1.748 0 00-.235-.017c-.6 0-.904.206-.904.613 0 .25.148.41.38.41.43 0 .742-.41.76-1.006zm.772 1.793h-.878l.02-.417c-.268.33-.625.487-1.11.487-.575 0-.968-.45-.968-1.1 0-.98.684-1.551 1.86-1.551.12 0 .274.01.431.03a.994.994 0 00.042-.26c0-.267-.184-.366-.68-.366a3.52 3.52 0 00-1.12.18l.146-.905c.528-.155.876-.213 1.268-.213.91 0 1.392.409 1.39 1.18.003.207-.032.463-.085.798-.092.582-.29 1.833-.316 2.137zM21.811 17.75a2.42 2.42 0 01-.76.13c-.542 0-.838-.31-.838-.883-.007-.179.078-.646.146-1.073.06-.377.459-2.747.459-2.747h1.053l-.123.609h.54l-.144.967h-.542c-.122.766-.297 1.72-.299 1.846 0 .208.111.298.363.298.121 0 .214-.012.286-.038l-.14.89M25.04 17.718c-.362.11-.711.163-1.08.163-1.18-.001-1.794-.617-1.794-1.796 0-1.376.782-2.39 1.843-2.39.868 0 1.423.568 1.423 1.458 0 .295-.039.583-.13.99h-2.097c-.07.584.303.827.915.827.377 0 .717-.078 1.095-.254l-.175 1.002zm-.592-2.387c.006-.084.112-.719-.49-.719-.335 0-.575.257-.673.719h1.163zM17.739 15.058c0 .51.247.86.807 1.124.429.202.495.262.495.445 0 .25-.189.364-.608.364-.316 0-.61-.05-.95-.159l-.145.93c.24.052.456.1 1.102.119 1.118 0 1.634-.426 1.634-1.346 0-.553-.216-.877-.746-1.121-.444-.204-.495-.25-.495-.438 0-.217.176-.33.518-.33.208 0 .492.024.761.062l.15-.933a7.21 7.21 0 00-.931-.08c-1.186 0-1.596.62-1.592 1.363M39.398 17.81h-1.002l.05-.374c-.29.31-.588.445-.977.445-.77 0-1.279-.664-1.279-1.67 0-1.34.79-2.468 1.724-2.468.41 0 .722.168 1.011.55l.235-1.431h1.045l-.807 4.949zm-1.563-.93c.494 0 .84-.558.84-1.355 0-.512-.197-.79-.56-.79-.481 0-.822.561-.822 1.353 0 .526.182.793.542.793zM34.746 13.786c-.133 1.246-.368 2.507-.553 3.754l-.048.27h1.06c.379-2.46.47-2.94 1.064-2.88.095-.505.271-.946.402-1.168-.443-.093-.691.158-1.016.634.026-.206.073-.406.064-.61h-.973M26.026 13.786c-.133 1.246-.37 2.507-.553 3.754l-.048.27h1.06c.379-2.46.47-2.94 1.063-2.88.095-.505.272-.946.403-1.168-.443-.093-.691.158-1.016.634.026-.206.073-.406.064-.61h-.973"/></g><g transform="translate(54)"><rect fill="#FFF" width="50" height="30" rx="2"/><path fill="#26337A" d="M20.745 19.773l1.537-9.537h2.458l-1.537 9.537h-2.458M32.116 10.47a6.075 6.075 0 00-2.202-.4c-2.43 0-4.14 1.295-4.154 3.148-.015 1.37 1.22 2.135 2.152 2.59.958.468 1.28.767 1.276 1.184-.007.639-.764.932-1.47.932-.985 0-1.507-.144-2.316-.5l-.316-.152-.343 2.134c.573.266 1.635.497 2.737.509 2.583 0 4.26-1.279 4.28-3.258.009-1.087-.646-1.91-2.064-2.591-.859-.442-1.386-.735-1.38-1.183 0-.396.445-.82 1.408-.82a4.31 4.31 0 011.839.366l.22.109.333-2.068M35.389 16.392c.203-.548.979-2.666.979-2.666-.015.026.202-.552.326-.91l.166.823s.472 2.276.569 2.753h-2.04zm3.031-6.146h-1.899c-.589 0-1.03.169-1.288.79l-3.65 8.74h2.582s.421-1.175.517-1.433l3.147.005c.074.333.3 1.429.3 1.429h2.28l-1.989-9.53zM18.683 10.244l-2.405 6.502-.258-1.321c-.448-1.523-1.843-3.174-3.404-4l2.2 8.34 2.602-.001 3.87-9.52h-2.605"/><path d="M14.045 10.238h-3.963l-.032.197c3.083.79 5.124 2.697 5.97 4.99l-.86-4.382c-.15-.605-.581-.784-1.115-.805" fill="#EC982D"/></g><rect fill="#FFF" width="50" height="30" rx="2"/><g fill-rule="nonzero"><path fill="#2FABF7" d="M9.61 11.64h1.268l-.634-1.614z"/><path d="M25.335 10.257c-.115-.058-.288-.058-.46-.058h-1.153v.922h1.152c.173 0 .346 0 .461-.058.115-.057.173-.23.173-.403.058-.23-.058-.346-.173-.403z" fill="#228FE0"/><path d="M37.662 8.529v.691l-.346-.691h-2.707v.691l-.346-.691h-3.686c-.634 0-1.152.115-1.613.345V8.53h-2.592v.345c-.288-.23-.634-.345-1.094-.345h-9.274l-.634 1.44-.633-1.44h-2.938v.691l-.345-.691H8.977l-1.152 2.707L6.5 14.231H9.438l.345-.921h.807l.345.921h3.341v-.691l.288.691h1.67l.288-.691v.691h8.007v-1.497h.115c.115 0 .115 0 .115.172v1.268h4.147v-.346a3.45 3.45 0 001.556.346h1.728l.345-.922h.807l.345.922h3.341v-.864l.518.864h2.708V8.529h-2.592zm-19.47 4.838h-.978V10.2l-1.383 3.168h-.864L13.585 10.2v3.168h-1.959l-.403-.864H9.265l-.346.922H7.825l1.728-4.09h1.44l1.613 3.86v-3.86h1.555l1.267 2.765 1.152-2.765h1.613v4.032zM22.11 10.2h-2.247v.749h2.189v.806h-2.189v.807h2.247v.864h-3.226v-4.09h3.226v.864zm4.32 1.67c.115.231.172.404.172.75v.806h-.979v-.519c0-.23 0-.576-.173-.806-.172-.173-.345-.173-.69-.173h-1.038v1.498h-.979v-4.09h2.189c.518 0 .864 0 1.152.173.288.173.46.46.46.922 0 .633-.402.979-.69 1.094.288.058.46.23.576.346zm1.728 1.498h-.98v-4.09h.98v4.09zm11.347 0h-1.383l-1.843-3.053v3.053h-1.958l-.346-.864H31.96l-.345.922h-1.095c-.46 0-1.037-.115-1.382-.461-.346-.346-.519-.806-.519-1.555 0-.576.116-1.152.519-1.613.288-.346.806-.46 1.44-.46h.921v.863h-.921c-.346 0-.519.058-.749.23-.173.173-.288.519-.288.922 0 .461.058.749.288.98.173.172.403.23.691.23h.403l1.325-3.168h1.44l1.613 3.859v-3.86h1.44l1.67 2.823V9.393h.98v3.974h.115z" fill="#0571C1"/><g fill="#228FE0"><path d="M32.305 11.64h1.325l-.634-1.614zM22.513 19.934V16.65l-1.498 1.613z"/></g><path fill="#2FABF7" d="M16.35 17.054v.748h2.13v.807h-2.13v.864h2.361l1.095-1.21-1.037-1.21z"/><path d="M24.702 17.054h-1.21v1.036h1.267c.346 0 .576-.172.576-.518-.057-.346-.288-.518-.633-.518z" fill="#228FE0"/><path d="M42.5 18.033V15.44h-2.419c-.519 0-.922.115-1.21.345v-.345h-2.65c-.403 0-.921.115-1.151.345v-.345h-4.666v.345c-.346-.288-.98-.345-1.267-.345h-3.11v.345c-.289-.288-.98-.345-1.325-.345h-3.456l-.807.864-.749-.864h-5.184v5.645h5.07l.806-.864.748.864h3.11V19.76h.404c.403 0 .922 0 1.325-.173v1.555h2.592v-1.497h.115c.173 0 .173 0 .173.172v1.325h7.833c.519 0 1.037-.115 1.325-.345v.345h2.477c.518 0 1.037-.057 1.382-.288.576-.345.922-.979.922-1.728 0-.403-.115-.806-.288-1.094zm-17.856.921h-1.152v1.383h-1.843l-1.152-1.325-1.21 1.325h-3.801v-4.09h3.859l1.152 1.325 1.21-1.325h3.052c.749 0 1.613.23 1.613 1.325-.058 1.152-.864 1.382-1.728 1.382zm5.76-.23c.115.173.173.403.173.749v.806h-.98v-.518c0-.23 0-.634-.172-.807-.115-.172-.346-.172-.691-.172h-1.037v1.497h-.98v-4.09h2.19c.46 0 .863 0 1.151.173.288.173.519.461.519.922 0 .634-.403.98-.691 1.094.288.116.46.23.518.346zm3.974-1.67h-2.246v.748h2.189v.807h-2.189v.806h2.246v.864h-3.225v-4.09h3.225v.865zm2.42 3.225h-1.844v-.864h1.844c.172 0 .288 0 .403-.115a.44.44 0 00.115-.288.44.44 0 00-.115-.288c-.058-.058-.173-.115-.346-.115-.921-.058-2.016 0-2.016-1.267 0-.576.346-1.21 1.383-1.21h1.9v.98h-1.785c-.173 0-.288 0-.403.057-.116.057-.116.173-.116.288 0 .173.116.23.23.288a.73.73 0 00.346.057h.519c.518 0 .864.116 1.094.346.173.173.288.46.288.864 0 .864-.518 1.267-1.497 1.267zm4.953-.403c-.23.23-.633.403-1.21.403h-1.843v-.864h1.844c.172 0 .288 0 .403-.115a.44.44 0 00.115-.288.44.44 0 00-.115-.288c-.058-.058-.173-.115-.346-.115-.921-.058-2.016 0-2.016-1.267 0-.576.346-1.21 1.383-1.21h1.9v.98h-1.728c-.172 0-.288 0-.403.057-.115.057-.115.173-.115.288 0 .173.058.23.23.288a.73.73 0 00.346.057h.518c.519 0 .864.116 1.095.346.057 0 .057.058.057.058.173.23.23.518.23.806 0 .346-.114.634-.345.864z" fill="#0571C1"/><path d="M29.367 17.169c-.115-.058-.288-.058-.46-.058h-1.153v.922h1.152c.173 0 .346 0 .461-.058.115-.057.173-.23.173-.403.058-.23-.058-.346-.173-.403z" fill="#228FE0"/><g fill="#228FE0"><path d="M25.335 10.257c-.115-.058-.288-.058-.46-.058h-1.153v.922h1.152c.173 0 .346 0 .461-.058.115-.057.173-.23.173-.403.058-.23-.058-.346-.173-.403zM32.305 11.64h1.325l-.634-1.614zM22.513 19.934V16.65l-1.498 1.613z"/></g><path d="M24.702 17.054h-1.21v1.036h1.267c.346 0 .576-.172.576-.518-.057-.346-.288-.518-.633-.518zM29.367 17.169c-.115-.058-.288-.058-.46-.058h-1.153v.922h1.152c.173 0 .346 0 .461-.058.115-.057.173-.23.173-.403.058-.23-.058-.346-.173-.403z" fill="#228FE0"/><g fill="#2FABF7"><path d="M24.298 20.164l-.806-.864v.98h-1.9l-1.153-1.326-1.267 1.325H15.37v-4.032h3.86l1.21 1.325.575-.691-1.44-1.44h-5.069v5.645h5.07l.863-.864.749.864h3.11zM18.308 14.174l-.749-.807h-.345v-.345l-.864-.864-.576 1.21h-.807l-1.382-3.169v3.168h-1.959l-.403-.864H9.265l-.403.864H7.825l1.728-4.032h1.44l1.613 3.86v-3.86h.864l-.807-.806H11.8v.691l-.288-.691H8.977l-1.152 2.707L6.5 14.174h2.995l.346-.864h.806l.403.864h3.226v-.692l.288.692h1.67l.288-.692v.692z"/><path d="M15.658 11.524l-.921-.922.691 1.498z"/></g><g fill="#228FE0"><path d="M41.866 20.798c.519-.346.864-.922.922-1.556l-.806-.806c.057.173.115.346.115.576 0 .346-.115.634-.346.864-.23.23-.633.403-1.21.403h-1.843v-.864h1.844c.172 0 .288 0 .403-.115a.44.44 0 00.115-.288.44.44 0 00-.115-.288c-.058-.058-.173-.115-.346-.115-.921-.058-2.016 0-2.016-1.267 0-.576.346-1.095 1.21-1.21l-.634-.634c-.115.058-.173.116-.23.116v-.346h-2.65c-.403 0-.921.115-1.152.346v-.346h-4.723v.346c-.346-.288-.98-.346-1.267-.346h-3.11v.346c-.289-.288-.98-.346-1.325-.346h-3.456l-.807.864-.749-.864h-.633l1.728 1.728.864-.922h3.053c.748 0 1.612.23 1.612 1.325 0 1.152-.806 1.383-1.67 1.383h-1.152v.864l.864.864v-.864h.288c.403 0 .922 0 1.325-.173v1.555h2.592V19.53h.115c.173 0 .173 0 .173.173v1.325h7.833c.519 0 1.037-.115 1.325-.346v.346h2.477c.46.058.98 0 1.382-.23zm-11.462-2.074c.115.173.173.403.173.749v.806h-.98v-.518c0-.23 0-.634-.172-.807-.115-.172-.346-.172-.691-.172h-1.037v1.497h-.98v-4.09h2.19c.46 0 .863 0 1.151.173.288.173.519.461.519.922 0 .634-.403.98-.691 1.094.288.116.46.23.518.346zm3.974-1.67h-2.246v.748h2.189v.807h-2.189v.806h2.246v.864h-3.225v-4.09h3.225v.865zm2.42 3.225h-1.844v-.864h1.844c.172 0 .288 0 .403-.115a.44.44 0 00.115-.288.44.44 0 00-.115-.288c-.058-.058-.173-.115-.346-.115-.921-.058-2.016 0-2.016-1.267 0-.576.346-1.21 1.383-1.21h1.9v.98h-1.785c-.173 0-.288 0-.403.057-.116.057-.116.173-.116.288 0 .173.116.23.23.288a.73.73 0 00.346.057h.519c.518 0 .864.116 1.094.346.173.173.288.46.288.864 0 .864-.518 1.267-1.497 1.267z"/><path d="M39.562 17.457c0 .173.058.23.23.288a.73.73 0 00.346.057h.519c.345 0 .576.058.806.173l-.864-.864h-.518c-.173 0-.288 0-.403.058a.44.44 0 00-.116.288zM37.546 14l.116.174h.057zM34.378 10.833l.98 2.361v-1.382z"/><path d="M24.529 12.734h.115c.115 0 .115 0 .115.172v1.268h4.147v-.346a3.45 3.45 0 001.556.346h1.728l.345-.922h.807l.345.922h3.341v-.576l-.806-.807v.634h-1.959l-.288-.922H31.96l-.345.922h-1.095c-.46 0-1.037-.115-1.382-.461-.346-.346-.519-.806-.519-1.555 0-.576.116-1.152.519-1.613.288-.346.806-.46 1.44-.46h.921v.863h-.921c-.346 0-.519.058-.749.23-.173.173-.288.519-.288.922 0 .461.058.749.288.98.173.172.403.23.691.23h.403l1.325-3.168h.576l-.806-.807h-1.498c-.633 0-1.152.116-1.613.346v-.346h-2.534v.346c-.288-.23-.634-.346-1.094-.346h-9.274l-.634 1.44-.633-1.44h-2.535l.807.807h1.152l.979 2.131.346.346 1.036-2.535h1.613v4.09h-.979v-3.168l-.98 2.304 1.671 1.67h6.624l.058-1.497zm2.65-3.399h.979v4.09h-.98v-4.09zm-5.07.864h-2.246v.749h2.189v.806h-2.189v.807h2.247v.864h-3.226v-4.09h3.226v.864zm1.613 3.168h-.979v-4.09h2.189c.518 0 .864 0 1.152.173.288.173.46.461.46.922 0 .634-.402.98-.69 1.094.23.058.403.23.46.346.116.23.173.403.173.749v.806h-.979v-.518c0-.23 0-.576-.173-.807-.057-.115-.23-.115-.576-.115h-1.037v1.44z"/></g></g></g></svg>